<svg xmlns="http://www.w3.org/2000/svg" xmlns:xlink="http://www.w3.org/1999/xlink" style="width: 100%; height: 100%" width="36"  height="36" ><defs><svg xmlns="http://www.w3.org/2000/svg" xmlns:xlink="http://www.w3.org/1999/xlink" viewBox="0 0 36 36" id="svg2466721397"><path d="M 4.737 13.434 C 4.737 11.601 5.608 9.337 7.262 7.506 C 8.893 5.7 10.888 4.737 12.789 4.737 C 14.691 4.737 16.686 5.7 18.317 7.506 C 19.971 9.337 20.842 11.601 20.842 13.434 C 20.842 20.454 16.32 26.905 12.789 30.794 C 9.259 26.905 4.737 20.454 4.737 13.434 Z M 15.466 34.869 C 19.215 30.952 25.579 22.909 25.579 13.434 C 25.579 7.074 19.853 0 12.789 0 C 5.726 0 0 7.074 0 13.434 C 0 22.909 6.363 30.952 10.113 34.869 C 11.556 36.377 14.023 36.377 15.466 34.869 Z" fill="#029297"></path><path d="M 31.263 13.434 C 31.263 20.454 26.741 26.905 23.211 30.794 C 19.68 26.905 15.158 20.454 15.158 13.434 C 15.158 11.601 16.029 9.337 17.683 7.506 C 17.787 7.39 17.893 7.279 18 7.171 C 16.712 5.864 15.224 5.062 13.747 4.816 C 11.681 7.311 10.421 10.45 10.421 13.434 C 10.421 22.909 16.785 30.952 20.534 34.869 C 21.977 36.377 24.444 36.377 25.887 34.869 C 29.637 30.952 36 22.909 36 13.434 C 36 7.074 30.274 0 23.211 0 C 21.355 0 19.592 0.488 18 1.323 C 19.625 2.176 21.07 3.391 22.253 4.816 C 22.569 4.764 22.89 4.737 23.211 4.737 C 25.112 4.737 27.107 5.7 28.738 7.506 C 30.392 9.337 31.263 11.601 31.263 13.434 Z" fill="#01494B"></path></svg></defs><use href="#svg2466721397"></use></svg>